<svg width="1440" height="500" viewBox="0 0 1440 500" fill="none" xmlns="http://www.w3.org/2000/svg">
<path d="M6.35708 413.309L0 499.5H1440V0.499978H1298C1298 0.499978 1253.22 -4.61825 1192 24C1142.69 47.0503 1089.5 119 1057 160.5C1024.5 202 1015.5 246.976 959 228C902.5 209.024 875 178.5 875 178.5C875 178.5 835.355 151.154 779 132.559C734.951 118.024 661 119 661 119C661 119 594.39 128.507 557.5 148.688C517.292 170.683 501.916 194.167 471 228C445.688 255.701 435.533 274.631 411.476 303.428C398.065 319.483 390.5 318 375 319.5C359.5 321 340.484 308.315 314.002 289.819C273.646 261.633 241.718 243.259 200.5 235C162.447 227.375 144.281 233.088 112.5 246.976C80.7139 260.865 66.1767 278.532 43.9216 303.428C13.4878 337.474 6.35708 413.309 6.35708 413.309Z" fill="url(#paint0_linear_202_17)"/>
<defs>
<linearGradient id="paint0_linear_202_17" x1="1433.5" y1="199" x2="6.99951" y2="207" gradientUnits="userSpaceOnUse">
<stop stop-color="#9288EA"/>
<stop offset="0.158654" stop-color="#577AF0"/>
<stop offset="0.691335" stop-color="#1B6CFB"/>
</linearGradient>
</defs>
</svg>
